<svg width="960" height="960" viewBox="0 0 960 960" fill="none" xmlns="http://www.w3.org/2000/svg">
<g clip-path="url(#clip0_46_7725)">
<g clip-path="url(#clip1_46_7725)">
<path fill-rule="evenodd" clip-rule="evenodd" d="M572.239 495.174C571.745 486.946 571.243 478.721 570.733 470.5L570.987 470.484C572.966 486.8 587.301 500.545 602.925 505.6C618.549 510.655 635.985 507.949 650.754 500.788C665.523 493.627 675.212 485.279 683.662 471.199V471.186C672.827 465.936 662.888 459.009 654.213 450.661L653.894 451.005L628.148 450.329H627.982L607.201 429.318L607.001 429.228C606.236 431.126 605.099 432.852 603.656 434.303C598.767 439.102 591.108 439.268 584.267 439.128C541.644 438.265 499.022 437.405 456.402 436.549C451.896 436.456 446.586 435.937 444.275 432.056C442.782 429.58 443.05 426.465 443.369 423.58C446.577 394.102 449.79 364.62 453.006 335.133C453.874 327.219 455.674 317.952 462.912 314.659C466.459 313.037 470.531 313.318 474.412 313.65C485.3 314.557 496.175 315.565 507.039 316.675C513.045 317.289 519.051 318.042 525.06 318.796C534.413 319.968 543.772 321.141 553.145 321.794L553.171 321.449C553.515 315.322 554.077 309.195 554.843 303.107L554.192 303.03C543.675 294.154 531.586 287.33 518.553 282.913L518.297 282.887C518.276 283.301 518.169 283.706 517.985 284.077C517.801 284.448 517.542 284.777 517.225 285.044C516.36 285.622 515.342 285.929 514.302 285.925C512.565 286.091 510.828 286.245 509.091 286.399C508.287 286.47 507.484 286.542 506.681 286.614C501.813 287.039 496.942 287.431 492.066 287.789C487.343 288.15 482.62 288.483 477.897 288.789C472.105 289.164 466.319 289.492 460.537 289.772C455.265 290.047 449.993 290.281 444.721 290.472C442.555 290.558 440.4 290.632 438.235 290.705L437.956 290.715C435.849 290.779 433.488 290.753 431.956 289.298C431.76 289.109 431.581 288.904 431.42 288.685C397.913 296.585 360.627 285.916 336.348 261.485C313.078 238.061 302.56 202.767 308.878 170.408C301.738 169.437 294.582 168.71 287.408 168.225C280.132 167.718 272.843 167.451 265.542 167.425C258.414 167.386 251.296 167.578 244.186 167.999C241.124 193.835 241.404 220.08 247.224 245.367C254.692 277.815 271.886 308.68 298.437 328.759C315.872 341.945 336.693 350.114 357.972 355.08C376.132 359.318 394.732 361.322 413.332 362.866L413.307 363.096C418.17 419.07 394.53 476.358 351.793 512.827L351.436 513.227C359.323 520.452 368.666 525.072 378.636 528.481C383.933 530.293 389.396 531.774 394.924 533.127C446.629 545.722 500.783 544.045 551.611 528.276C556.449 526.754 561.44 524.976 565.257 521.776C566.145 521.033 566.961 520.208 567.695 519.312C573.005 512.802 572.75 503.548 572.239 495.174ZM300.663 187.901C300.845 186.86 300.149 185.868 299.108 185.685C298.066 185.503 297.074 186.199 296.891 187.24C292.4 212.87 298.225 239.236 313.095 260.588C327.965 281.941 350.675 296.548 376.271 301.224C377.311 301.414 378.308 300.725 378.498 299.685C378.689 298.645 377.999 297.648 376.959 297.458C352.357 292.963 330.53 278.923 316.237 258.4C301.945 237.877 296.346 212.535 300.663 187.901Z" fill="url(#paint0_linear_46_7725)"/>
<path fill-rule="evenodd" clip-rule="evenodd" d="M463.93 584.078C438.183 617.994 403.53 645.378 363.688 660.245C320.097 676.52 270.339 677.21 227.373 659.377C180.782 640.052 145.155 601.119 115.988 559.965C108.303 549.141 100.632 535.765 105.24 523.318C105.73 521.996 106.346 520.724 107.078 519.518C110.422 513.918 116.026 509.702 121.655 506.191C142.233 493.429 165.83 486.358 190.036 485.7C191.16 485.662 192.296 485.649 193.436 485.649C196.78 485.649 200.431 485.891 202.958 488.087C205.599 490.374 206.261 494.103 206.877 497.578L206.877 497.578C206.904 497.729 206.931 497.88 206.958 498.031C213.595 535.38 245.328 566.931 282.729 573.343C320.13 579.755 359.918 561.51 378.629 528.5L378.642 528.475C383.942 530.287 389.402 531.768 394.93 533.121C446.633 545.715 500.785 544.038 551.611 528.27C556.449 526.751 561.44 524.977 565.257 521.77L566.763 522.102C616.686 538.109 652.874 584.088 668.396 634.164C683.918 684.24 681.442 738.133 674.064 790.047C672.608 800.259 670.809 810.854 664.809 819.253C664.682 819.426 664.556 819.599 664.428 819.773C664.31 819.933 664.191 820.092 664.069 820.253C656.155 830.49 642.777 835.507 629.795 836.158C616.395 836.834 603.168 833.49 590.161 830.184C588.872 829.852 587.561 829.507 586.255 829.112C580.179 827.299 574.192 824.58 571.588 818.989C567.979 811.269 572.706 802.508 576.777 794.964L576.962 794.621C599.262 753.289 599.352 700.787 577.192 659.378C555.032 617.969 511.3 588.917 464.543 584.538L463.93 584.078ZM590.177 556.531C590.88 555.741 592.09 555.671 592.88 556.374C651.368 608.429 677.989 693.682 659.517 769.769C659.267 770.797 658.232 771.428 657.205 771.178C656.177 770.929 655.547 769.894 655.796 768.866C673.934 694.154 647.765 610.348 590.335 559.234C589.545 558.531 589.474 557.321 590.177 556.531ZM195.098 505.147C194.939 504.101 193.962 503.383 192.917 503.542C191.872 503.701 191.153 504.677 191.312 505.723C197.202 544.42 226.884 578.424 264.43 589.489C301.976 600.554 345.354 588.083 371.29 558.766C371.991 557.974 371.917 556.764 371.125 556.064C370.333 555.363 369.123 555.437 368.422 556.229C343.471 584.433 301.632 596.461 265.512 585.816C229.392 575.171 200.764 542.375 195.098 505.147Z" fill="#171717"/>
<path fill-rule="evenodd" clip-rule="evenodd" d="M722.633 466.387V466.246C755.515 457.234 767.463 437.332 771.739 413.615C776.015 389.898 770.794 363.935 745.009 349.855L745.035 349.755C726.755 345.402 706.677 348.512 691.155 359.112C672.518 371.838 661.464 395.274 664.476 417.651C668.472 447.393 694.461 466.68 722.633 466.387ZM748.95 367.655C748.078 367.057 746.886 367.279 746.288 368.151C745.69 369.023 745.912 370.215 746.784 370.813C759.746 379.702 764.944 398.442 758.415 412.739C757.975 413.7 758.399 414.836 759.361 415.275C760.323 415.715 761.458 415.291 761.898 414.329C769.2 398.34 763.446 377.596 748.95 367.655Z" fill="#171717"/>
<path d="M741.844 315.992C746.924 312.456 754.2 316.95 752.004 323.153C751.525 324.439 750.674 325.553 749.561 326.356C748.448 327.158 747.121 327.611 745.75 327.659C744.38 327.651 743.045 327.226 741.922 326.44C740.8 325.654 739.944 324.544 739.469 323.259C739.051 321.952 739.055 320.546 739.481 319.241C739.907 317.937 740.734 316.8 741.844 315.992V315.992Z" fill="url(#paint1_linear_46_7725)"/>
<path d="M695.431 836.527C705.668 842.233 715.421 849.968 719.99 860.742C722.809 867.666 723.61 875.247 722.301 882.608C722.275 882.748 722.25 882.876 722.224 883.016L721.994 882.978C709.715 895.794 691.04 902.329 673.31 902.687C655.58 903.045 638.04 897.466 622.61 888.735C607.18 880.004 594.17 868.72 581.775 856.019H581.584C581.405 847.236 583.767 838.046 586.205 829.276L586.256 829.11C587.556 829.51 588.873 829.851 590.162 830.183C603.169 833.489 616.393 836.833 629.796 836.157C642.778 835.506 656.156 830.489 664.07 820.252L664.248 820.379C674.126 826.673 685.206 830.834 695.431 836.527Z" fill="url(#paint2_linear_46_7725)"/>
<path d="M469.507 222.49L469.239 222.707C466.731 223.358 464.491 224.78 462.835 226.773C461.179 228.766 460.191 231.228 460.01 233.813C459.479 232.966 459.055 232.057 458.746 231.106C457.844 228.039 458.016 224.757 459.235 221.802C460.453 218.847 462.645 216.396 465.446 214.857C466.207 217.675 467.595 220.284 469.507 222.49V222.49Z" fill="#171717"/>
<path d="M534.633 149.361C537.709 148.212 540.594 146.808 544.398 146.761C550.423 146.671 556.831 152.084 555.312 157.917C554.265 161.925 550.168 164.287 546.287 165.717C537.212 169.061 527.753 169.763 518.128 169.291C505.028 168.665 491.667 165.857 478.583 164.591C469.967 163.762 459.997 164.17 454.445 170.808C450.003 176.118 449.888 183.713 450.003 190.644C450.143 199.618 450.288 208.587 450.437 217.552H450.079C449.079 221.637 446.607 225.517 442.842 227.352C439.077 229.187 433.983 228.539 431.404 225.233C429.949 223.369 429.668 221.48 430.404 219.897L430.136 219.782C429.517 221.2 428.443 222.372 427.085 223.114C422.732 225.858 415.485 224.263 414.665 219.195C413.937 214.702 418.239 211.23 421.507 208.064C426.875 202.814 430.35 195.932 431.387 188.496C432.787 178.182 429.561 166.744 434.999 157.873C439.275 150.903 447.815 147.712 455.946 146.921C464.077 146.13 472.31 147.202 480.454 146.436C488.598 145.67 497.154 142.568 501.503 135.649C504.018 131.667 505.129 126.51 509.06 123.944C511.061 122.754 513.448 122.395 515.709 122.944C517.971 123.493 519.928 124.906 521.16 126.88C523.445 130.926 517.829 134.73 517.471 138.764C518.129 136.035 519.723 133.624 521.977 131.951C524.231 130.279 527 129.451 529.802 129.612C535.38 130.135 540.116 135.483 539.784 141.074C539.636 142.762 539.092 144.392 538.197 145.832C537.303 147.271 536.082 148.48 534.633 149.361V149.361Z" fill="#171717"/>
<path d="M293.034 131.35C297.642 131.426 302.534 131.605 306.386 134.132C307.373 134.781 308.263 135.568 309.028 136.468C311.952 139.838 313.203 144.668 313.128 149.22C313.028 154.965 311.175 160.52 309.809 166.095C309.464 167.525 309.145 168.968 308.877 170.41C301.744 169.44 294.587 168.712 287.407 168.227L287.42 168.087C288.683 155.845 289.942 143.608 291.198 131.375V131.311L293.034 131.35Z" fill="url(#paint3_linear_46_7725)"/>
<path d="M291.2 131.311V131.375C289.949 143.617 288.689 155.854 287.422 168.087L287.409 168.227C280.133 167.717 272.844 167.45 265.543 167.427V167.414C266.909 155.326 268.271 143.238 269.628 131.149V130.9C276.809 131.033 284 131.17 291.2 131.311Z" fill="url(#paint4_linear_46_7725)"/>
<path d="M269.625 131.145C268.259 143.234 266.897 155.322 265.54 167.41V167.423C258.417 167.385 251.298 167.576 244.184 167.997C245.04 160.697 246.176 153.42 247.516 146.208C248.397 141.508 249.609 136.417 253.416 133.52C256.288 131.32 260.003 130.865 263.692 130.826C264.585 130.814 265.466 130.826 266.347 130.839C267.447 130.865 268.53 130.877 269.628 130.903V131.145H269.625Z" fill="url(#paint5_linear_46_7725)"/>
<path d="M106.962 519.45C90.0226 512.455 73.2199 505.119 56.5539 497.443C52.7879 495.708 48.8439 493.78 45.7929 491.048V491.036C45.7679 481.858 45.7929 473.382 48.2059 464.536C50.6189 455.69 55.8259 447.201 63.9059 442.849C71.8589 438.572 81.3809 438.802 90.4059 439.159C121.935 440.385 154.319 441.917 183.181 454.669L183.423 454.569C184.37 457.336 185.075 460.18 185.529 463.069C186.806 470.669 187.099 478.54 190.035 485.65V485.701C165.83 486.357 142.233 493.427 121.654 506.188C116.025 509.699 110.421 513.911 107.077 519.515L106.962 519.45Z" fill="url(#paint6_linear_46_7725)"/>
<path d="M492.471 265.393C491.464 262.522 491.243 259.434 491.831 256.449C492.419 253.464 493.795 250.691 495.815 248.416C498.547 245.416 502.262 243.516 505.363 240.897C514.924 232.881 517.563 219.261 517.541 206.79C517.519 194.319 515.448 181.656 518.115 169.478" stroke="#171717" stroke-width="3.829" stroke-linecap="round" stroke-linejoin="round"/>
<path d="M451.254 267.933V267.833C450.973 251.073 450.7 234.313 450.437 217.552C450.296 208.579 450.151 199.609 450.003 190.644C449.888 183.713 450.003 176.118 454.445 170.808C459.997 164.17 469.967 163.762 478.583 164.591C491.667 165.855 505.031 168.663 518.128 169.291C527.753 169.763 537.212 169.061 546.287 165.717C550.168 164.287 554.265 161.925 555.312 157.917C556.831 152.084 550.423 146.671 544.398 146.761C540.598 146.812 537.709 148.216 534.633 149.361C532.77 150.111 530.81 150.592 528.812 150.79" stroke="#171717" stroke-width="3.829" stroke-linecap="round" stroke-linejoin="round"/>
<path d="M528.4 150.893C530.589 151.09 532.782 150.551 534.629 149.361C536.079 148.481 537.3 147.273 538.196 145.834C539.092 144.394 539.637 142.765 539.786 141.076C540.118 135.486 535.386 130.137 529.804 129.614C527.003 129.453 524.233 130.281 521.979 131.954C519.726 133.626 518.131 136.037 517.473 138.766C517.831 134.732 523.447 130.928 521.162 126.882C519.93 124.908 517.973 123.495 515.711 122.946C513.45 122.397 511.063 122.756 509.062 123.946C505.131 126.512 504.02 131.669 501.506 135.651C497.153 142.57 488.588 145.672 480.456 146.438C472.324 147.204 464.092 146.119 455.948 146.923C447.804 147.727 439.28 150.905 435 157.875C429.562 166.746 432.792 178.184 431.388 188.498C430.351 195.934 426.876 202.816 421.508 208.066C418.24 211.232 413.938 214.704 414.666 219.197C415.483 224.265 422.733 225.86 427.086 223.116C428.444 222.374 429.518 221.202 430.137 219.784C430.852 218.023 430.788 215.984 431.847 213.095" stroke="#171717" stroke-width="3.829" stroke-linecap="round" stroke-linejoin="round"/>
<path d="M433.842 216.963C432.367 217.471 431.14 218.521 430.409 219.899C429.668 221.482 429.949 223.371 431.409 225.235C433.988 228.541 439.081 229.204 442.847 227.354C446.613 225.504 449.089 221.635 450.084 217.554" stroke="#171717" stroke-width="3.829" stroke-linecap="round" stroke-linejoin="round"/>
<path d="M479.222 214.014C481.711 216.491 486.332 214.814 488.004 211.742C489.676 208.67 489.294 204.913 488.86 201.428C488.119 195.467 487.383 189.506 486.651 183.545C486.358 181.158 486.243 178.311 488.132 176.831C489.532 175.731 491.515 175.861 493.289 176.052C497.489 176.473 501.675 176.907 505.875 177.341" stroke="#171717" stroke-width="3.829" stroke-linecap="round" stroke-linejoin="round"/>
<path d="M469.891 191.651V183.239" stroke="#171717" stroke-width="3.829" stroke-linecap="round" stroke-linejoin="round"/>
<path d="M497.385 192.263C497.194 189.455 497.015 186.663 496.824 183.851" stroke="#171717" stroke-width="3.829" stroke-linecap="round" stroke-linejoin="round"/>
<path d="M484.314 229.753C481.477 229.637 478.695 228.931 476.146 227.681C473.596 226.43 471.335 224.662 469.507 222.49C467.596 220.284 466.209 217.675 465.448 214.857C462.647 216.396 460.455 218.847 459.237 221.802C458.018 224.757 457.846 228.039 458.748 231.106C459.057 232.057 459.481 232.966 460.012 233.813C461.434 236.091 463.478 237.917 465.902 239.074C468.326 240.232 471.029 240.674 473.696 240.348" stroke="#171717" stroke-width="3.829" stroke-linecap="round" stroke-linejoin="round"/>
<path d="M460.01 233.851V233.813C460.191 231.228 461.179 228.766 462.835 226.773C464.491 224.78 466.731 223.358 469.239 222.707" stroke="#171717" stroke-width="3.829" stroke-linecap="round" stroke-linejoin="round"/>
<path d="M444.335 268.175C444.246 268.175 444.169 268.188 444.08 268.188C440.557 268.367 436.753 268.648 434.098 270.971C430.868 273.805 430.485 278.63 430.345 282.931C430.281 284.923 430.294 287.131 431.417 288.688C431.578 288.907 431.758 289.112 431.953 289.301C433.485 290.756 435.846 290.782 437.953 290.718C440.212 290.641 442.459 290.565 444.718 290.475C449.99 290.284 455.262 290.05 460.534 289.775C466.316 289.495 472.103 289.168 477.894 288.793C482.618 288.486 487.341 288.152 492.063 287.793C496.939 287.435 501.811 287.043 506.678 286.618C509.218 286.389 511.759 286.172 514.299 285.929C515.34 285.933 516.357 285.626 517.222 285.048C517.539 284.781 517.798 284.452 517.983 284.081C518.167 283.71 518.273 283.305 518.294 282.891C518.316 281.352 518.244 279.813 518.077 278.283C518.039 275.513 519.469 272.462 517.962 270.126C516.979 268.62 515.09 268.02 513.341 267.599C511.1 267.06 508.83 266.651 506.541 266.374C501.878 265.828 497.179 265.641 492.487 265.812C491.925 265.825 491.351 265.85 490.787 265.876C490.021 265.901 489.268 265.927 488.502 265.965C484.342 266.182 480.185 266.391 476.031 266.591C470.698 266.858 465.367 267.121 460.037 267.382C459.973 267.382 459.896 267.395 459.837 267.395C456.978 267.535 454.119 267.688 451.259 267.829L444.335 268.175Z" stroke="#171717" stroke-width="3.829" stroke-linecap="round" stroke-linejoin="round"/>
<path d="M431.545 288.663C431.504 288.677 431.461 288.686 431.417 288.688C397.91 296.588 360.624 285.918 336.345 261.488C313.075 238.064 302.557 202.77 308.875 170.411C309.143 168.968 309.462 167.526 309.807 166.096C311.173 160.518 313.024 154.966 313.126 149.221C313.203 144.664 311.952 139.839 309.026 136.469C308.261 135.569 307.371 134.782 306.384 134.133C302.529 131.606 297.64 131.427 293.032 131.351L291.194 131.312C284.007 131.172 276.816 131.036 269.622 130.904C268.522 130.878 267.439 130.866 266.341 130.84C265.46 130.827 264.579 130.815 263.686 130.827C259.997 130.866 256.286 131.327 253.41 133.521C249.61 136.421 248.394 141.511 247.51 146.209C246.17 153.421 245.034 160.697 244.178 167.998C241.115 193.834 241.396 220.079 247.216 245.366C254.684 277.814 271.878 308.679 298.429 328.758C315.865 341.944 336.685 350.113 357.964 355.079C376.128 359.317 394.726 361.321 413.324 362.865C416.516 363.121 419.724 363.376 422.911 363.619" stroke="#171717" stroke-width="3.829" stroke-linecap="round" stroke-linejoin="round"/>
<path d="M413.3 363.094C418.163 419.068 394.523 476.356 351.786 512.825" stroke="#171717" stroke-width="3.829" stroke-linecap="round" stroke-linejoin="round"/>
<path d="M351.254 513.068C351.318 513.119 351.369 513.168 351.433 513.221C359.322 520.446 368.665 525.066 378.633 528.475C383.933 530.287 389.393 531.768 394.921 533.121C446.627 545.716 500.782 544.04 551.61 528.27C556.448 526.751 561.439 524.977 565.256 521.77C566.144 521.027 566.96 520.202 567.694 519.307C573.004 512.797 572.749 503.542 572.238 495.168C571.74 486.948 571.238 478.723 570.732 470.494C570.298 463.269 569.86 456.048 569.417 448.832" stroke="#171717" stroke-width="3.829" stroke-linecap="round" stroke-linejoin="round"/>
<path d="M570.987 470.484C572.966 486.798 587.301 500.533 602.925 505.6C618.549 510.667 635.973 507.949 650.754 500.788C665.535 493.627 675.212 485.279 683.662 471.199" stroke="#171717" stroke-width="3.829" stroke-linecap="round" stroke-linejoin="round"/>
<path d="M518.549 282.919C531.583 287.336 543.672 294.16 554.189 303.036" stroke="#171717" stroke-width="3.829" stroke-linecap="round" stroke-linejoin="round"/>
<path d="M309.301 136.239C316.252 134.09 322.388 129.884 326.901 124.176C327.83 123.103 328.549 121.864 329.02 120.525C329.248 119.85 329.327 119.134 329.25 118.426C329.172 117.717 328.941 117.035 328.573 116.425C327.22 114.446 324.399 114.225 322.012 114.433C316.396 114.926 310.949 116.606 306.031 119.361C305.801 119.488 305.571 119.616 305.354 119.744" stroke="#171717" stroke-width="3.829" stroke-linecap="round" stroke-linejoin="round"/>
<path d="M306.029 119.389V119.364C309.207 104.564 312.411 89.443 310.56 74.432C310.216 71.632 309.245 68.317 306.527 67.564C304.51 67.003 302.352 68.228 301.165 69.938C300.096 71.7371 299.406 73.7351 299.136 75.81C296.492 89.162 293.859 102.51 291.236 115.853C291.096 116.581 290.943 117.321 290.802 118.053" stroke="#171717" stroke-width="3.829" stroke-linecap="round" stroke-linejoin="round"/>
<path d="M290.89 115.789C292.779 101.11 294.681 86.303 293.468 71.547C293.426 69.7488 293.014 67.9786 292.256 66.347C291.871 65.5341 291.266 64.8446 290.511 64.3556C289.756 63.8666 288.879 63.5974 287.979 63.578C285.541 63.692 283.933 66.118 282.963 68.364C276.848 82.444 279.784 98.63 277.716 113.858C277.576 114.892 277.423 115.9 277.231 116.922" stroke="#171717" stroke-width="3.829" stroke-linecap="round" stroke-linejoin="round"/>
<path d="M277.078 113.785C276.874 105.884 276.666 97.9843 276.453 90.085C276.274 82.745 276.07 75.367 274.461 68.206C273.938 65.87 272.891 63.19 270.555 62.654C268.219 62.118 266.049 64.147 264.862 66.254C261.11 72.918 262.297 81.138 263.162 88.746C264.759 102.678 264.934 116.736 263.685 130.704" stroke="#171717" stroke-width="3.829" stroke-linecap="round" stroke-linejoin="round"/>
<path d="M378.622 528.5C359.909 561.51 320.122 579.763 282.722 573.343C245.322 566.923 213.588 535.38 206.951 498.031C206.312 494.431 205.712 490.474 202.951 488.087C200.424 485.887 196.773 485.649 193.429 485.649C192.293 485.649 191.157 485.662 190.029 485.7C165.824 486.356 142.227 493.426 121.648 506.187C116.019 509.698 110.415 513.91 107.071 519.514C106.339 520.719 105.724 521.992 105.233 523.314C100.625 535.759 108.296 549.137 115.981 559.961C145.148 601.115 180.775 640.047 227.366 659.373C270.332 677.206 320.09 676.516 363.681 660.241C403.52 645.37 438.181 617.99 463.923 584.074C466.336 580.896 468.672 577.663 470.931 574.374" stroke="#171717" stroke-width="3.829" stroke-linecap="round" stroke-linejoin="round"/>
<path d="M566.762 522.105C616.685 538.112 652.873 584.091 668.395 634.167C683.917 684.243 681.441 738.136 674.063 790.05C672.607 800.262 670.808 810.857 664.808 819.256C664.566 819.588 664.323 819.92 664.068 820.256C656.154 830.493 642.776 835.51 629.794 836.161C616.394 836.837 603.167 833.493 590.16 830.187C588.871 829.855 587.56 829.51 586.254 829.115C580.178 827.302 574.191 824.583 571.587 818.992C567.924 811.155 572.851 802.245 576.961 794.624C599.261 753.292 599.351 700.79 577.191 659.381C555.031 617.972 511.3 588.916 464.542 584.538" stroke="#171717" stroke-width="3.829" stroke-linecap="round" stroke-linejoin="round"/>
<path d="M586.2 829.277C583.762 838.046 581.4 847.237 581.579 856.019C581.582 861.721 583.031 867.329 585.791 872.319C590.182 879.991 597.791 885.148 605.155 890.037C620.486 900.237 636.608 910.716 654.925 912.656C669.925 914.256 684.859 909.899 699.325 905.597C704.789 903.976 710.469 902.24 714.681 898.385C718.97 894.453 721.23 888.748 722.225 883.016C722.251 882.876 722.276 882.748 722.302 882.608C723.611 875.247 722.81 867.666 719.991 860.742C715.422 849.968 705.669 842.233 695.432 836.527C685.195 830.821 674.127 826.673 664.248 820.379" stroke="#171717" stroke-width="3.829" stroke-linecap="round" stroke-linejoin="round"/>
<path d="M581.773 856.019C594.168 868.719 607.163 879.991 622.608 888.735C638.053 897.479 655.567 903.044 673.308 902.687C691.049 902.33 709.713 895.794 721.992 882.978" stroke="#171717" stroke-width="3.829" stroke-linecap="round" stroke-linejoin="round"/>
<path d="M703.179 841.454C683.411 842.035 664.649 850.301 650.879 864.495" stroke="#171717" stroke-width="3.829" stroke-linecap="round" stroke-linejoin="round"/>
<path d="M681.032 829.442C672.562 829.74 664.239 831.746 656.564 835.342C648.888 838.937 642.019 844.047 636.368 850.364" stroke="#171717" stroke-width="3.829" stroke-linecap="round" stroke-linejoin="round"/>
<path d="M45.793 491.048C48.844 493.78 52.788 495.707 56.554 497.443C73.212 505.115 90.0146 512.451 106.962 519.45" stroke="#171717" stroke-width="3.829" stroke-linecap="round" stroke-linejoin="round"/>
<path d="M190.035 485.649C187.099 478.539 186.806 470.663 185.529 463.068C185.075 460.179 184.37 457.335 183.423 454.568C181.815 449.968 179.351 445.768 175.534 442.85C170.263 438.803 163.306 437.871 156.694 437.093C131.56 434.08 106.247 431.068 80.9992 432.919C70.5572 433.684 59.3622 435.676 52.0352 443.169C45.4872 449.869 43.3682 459.622 41.5432 468.826C40.4322 474.468 39.3602 480.557 41.7722 485.777C42.7262 487.794 44.0966 489.587 45.7932 491.037" stroke="#171717" stroke-width="3.829" stroke-linecap="round" stroke-linejoin="round"/>
<path d="M45.7929 491.048V491.036C45.7679 481.858 45.7929 473.382 48.2059 464.536C50.6189 455.69 55.8259 447.201 63.9059 442.849C71.8589 438.572 81.3809 438.802 90.4059 439.159C121.935 440.385 154.319 441.917 183.181 454.669" stroke="#171717" stroke-width="3.829" stroke-linecap="round" stroke-linejoin="round"/>
<path d="M93.0869 513.553C100.622 511.835 107.423 507.782 112.518 501.971C117.614 496.16 120.744 488.889 121.463 481.194" stroke="#171717" stroke-width="3.829" stroke-linecap="round" stroke-linejoin="round"/>
<path d="M79.7002 507.553C85.4635 504.897 90.5181 500.917 94.4525 495.938C98.3869 490.959 101.09 485.121 102.341 478.9" stroke="#171717" stroke-width="3.829" stroke-linecap="round" stroke-linejoin="round"/>
<path d="M444.335 268.1V268.176C444.871 275.546 444.999 282.939 444.718 290.323" stroke="#171717" stroke-width="3.829" stroke-linecap="round" stroke-linejoin="round"/>
<path d="M460.048 267.639C460.406 275.094 460.585 281.808 460.508 289.263" stroke="#171717" stroke-width="3.829" stroke-linecap="round" stroke-linejoin="round"/>
<path d="M476.043 266.848C477.241 274.058 477.856 281.354 477.881 288.663" stroke="#171717" stroke-width="3.829" stroke-linecap="round" stroke-linejoin="round"/>
<path d="M490.8 266.35C492.281 273.34 492.703 280.513 492.051 287.629" stroke="#171717" stroke-width="3.829" stroke-linecap="round" stroke-linejoin="round"/>
<path d="M506.512 266.567C507.626 273.183 507.682 279.934 506.678 286.567" stroke="#171717" stroke-width="3.829" stroke-linecap="round" stroke-linejoin="round"/>
<path d="M553.142 321.8C537.748 320.728 522.392 318.252 507.036 316.682C496.173 315.571 485.297 314.563 474.409 313.656C470.528 313.324 466.456 313.044 462.909 314.665C455.671 317.958 453.871 327.225 453.003 335.139C449.787 364.626 446.575 394.108 443.366 423.587C443.047 426.471 442.779 429.587 444.272 432.062C446.583 435.943 451.893 436.462 456.399 436.556C499.02 437.411 541.641 438.271 584.264 439.134C591.105 439.274 598.764 439.108 603.653 434.309C605.097 432.857 606.234 431.129 606.998 429.229C608.257 425.868 609.076 422.358 609.436 418.787C611.925 401.031 614.419 383.275 616.916 365.52C618.575 353.699 620.238 341.87 621.907 330.033C622.098 328.604 622.264 327.008 621.383 325.872C620.413 324.608 618.614 324.443 617.031 324.379C598.024 323.651 579.013 322.915 560 322.17C557.712 322.081 555.427 321.953 553.142 321.8Z" stroke="#171717" stroke-width="3.829" stroke-linecap="round" stroke-linejoin="round"/>
<path d="M683.662 471.186C694.742 476.496 706.498 479.637 717.527 479.164C735.727 478.373 750.691 473.701 765.919 463.796C774.39 458.317 781.903 451.482 788.154 443.563C799.796 428.731 806.893 409.188 802.578 390.832C799.336 377.084 790.12 365.417 779.461 356.137C772.945 350.457 765.792 345.553 758.144 341.522C748.184 336.232 737.368 332.741 726.194 331.208C706.485 328.617 685.64 333.02 669.531 344.675C656.217 354.299 646.567 368.392 640.351 383.594C635.828 394.564 633.952 406.446 634.875 418.276C635.675 428.076 643.185 439.976 654.213 450.661C662.889 459.009 672.828 465.936 683.662 471.186V471.186Z" stroke="#171717" stroke-width="3.829" stroke-linecap="round" stroke-linejoin="round"/>
<path d="M722.633 466.387C727.191 466.346 731.729 465.794 736.163 464.74C746.161 462.379 755.421 457.587 763.122 450.788C777.828 437.704 785.922 417.83 785.601 398.159C785.435 387.909 782.972 377.429 776.934 369.132C771.688 361.945 764.034 356.776 755.834 353.291C752.341 351.807 748.728 350.624 745.034 349.755C726.755 345.402 706.676 348.517 691.154 359.112C672.517 371.838 661.463 395.274 664.475 417.651C668.472 447.393 694.461 466.68 722.633 466.387Z" stroke="#171717" stroke-width="3.829" stroke-linecap="round" stroke-linejoin="round"/>
<path d="M722.633 466.246C755.515 457.234 767.463 437.321 771.739 413.617C776.015 389.913 770.794 363.937 745.009 349.857" stroke="#171717" stroke-width="3.829" stroke-linecap="round" stroke-linejoin="round"/>
<path d="M667.131 298.517C666.411 299.341 665.877 300.309 665.564 301.358C665.252 302.406 665.168 303.509 665.319 304.593C665.906 307.708 668.829 309.801 671.701 311.167C678.888 314.62 687.054 315.46 694.794 313.541C702.81 311.384 710.902 310.341 719.11 309.15C724.739 308.333 730.368 307.512 735.998 306.687C737.424 306.515 738.83 306.208 740.198 305.768C741.761 305.309 743.115 304.319 744.027 302.968C745.7 300.249 744.537 296.598 742.571 294.068C739.799 290.76 736.08 288.381 731.914 287.252C727.77 286.15 723.501 285.592 719.214 285.592C716.827 285.516 714.427 285.503 712.027 285.554C698.627 285.835 685.208 288.184 673.248 294.132C671.089 295.088 669.127 296.439 667.464 298.115C667.346 298.243 667.235 298.377 667.131 298.517V298.517Z" stroke="#171717" stroke-width="3.829" stroke-linecap="round" stroke-linejoin="round"/>
<path d="M712.012 285.255C708.936 279.293 701.775 276.843 695.176 275.63C688.992 274.495 682.71 273.982 676.424 274.098C671.316 274.17 666.222 274.665 661.196 275.579C654.507 276.779 647.614 278.898 642.891 283.799C642.109 284.594 641.427 285.481 640.861 286.442C640.462 287.137 640.161 287.885 639.968 288.663C639.717 289.593 639.701 290.571 639.922 291.509C640.143 292.447 640.593 293.316 641.232 294.037C642.479 295.093 643.995 295.782 645.61 296.028C652.634 297.701 659.835 298.515 667.055 298.453" stroke="#171717" stroke-width="3.829" stroke-linecap="round" stroke-linejoin="round"/>
<path d="M676.424 274.047C671.33 270.189 665.339 267.689 659.013 266.784C652.714 265.893 646.339 265.67 639.993 266.12C631.993 266.503 623.565 267.346 617.055 272.005C616.736 272.235 616.43 272.464 616.123 272.72C613.979 274.494 612.243 276.855 612.192 279.574C612.141 283.274 615.37 286.374 618.932 287.386C622.494 288.398 626.284 287.808 629.909 287.131C633.534 286.454 637.249 285.731 640.862 286.442C640.874 286.442 640.9 286.454 640.913 286.454" stroke="#171717" stroke-width="3.829" stroke-linecap="round" stroke-linejoin="round"/>
<path d="M740.058 305.717C740.106 305.728 740.153 305.745 740.198 305.768C746.274 307.721 752.298 309.891 758.222 312.29C759.766 312.916 761.422 313.656 762.243 315.111C763.111 316.656 762.792 318.571 762.443 320.311C761.051 327.306 759.66 334.301 758.269 341.296" stroke="#171717" stroke-width="3.829" stroke-linecap="round" stroke-linejoin="round"/>
<path d="M741.844 315.992C740.735 316.799 739.909 317.936 739.482 319.24C739.056 320.543 739.051 321.948 739.469 323.255C739.944 324.54 740.8 325.65 741.922 326.436C743.044 327.222 744.38 327.647 745.75 327.655C747.12 327.607 748.445 327.153 749.558 326.352C750.67 325.551 751.52 324.437 752 323.153C754.2 316.95 746.924 312.456 741.844 315.992Z" stroke="#171717" stroke-width="3.829" stroke-linecap="round" stroke-linejoin="round"/>
<path d="M615.945 272.2C602.31 270.566 588.53 270.554 574.893 272.162C570.145 272.724 565.064 273.655 561.707 277.076C560.962 277.834 560.323 278.688 559.807 279.617C558.173 282.438 557.484 285.859 556.922 289.126C556.118 293.773 555.425 298.436 554.842 303.117C554.076 309.205 553.514 315.332 553.169 321.46" stroke="#171717" stroke-width="3.829" stroke-linecap="round" stroke-linejoin="round"/>
<path d="M559.665 279.523C559.716 279.549 559.754 279.587 559.805 279.613C586.105 296.896 611.937 313.848 638.245 331.131" stroke="#171717" stroke-width="3.829" stroke-linecap="round" stroke-linejoin="round"/>
<path d="M638.245 331.131C631.336 370.458 627.956 410.323 628.145 450.252" stroke="#171717" stroke-width="3.829" stroke-linecap="round" stroke-linejoin="round"/>
<path d="M627.982 450.329H628.148L653.894 451.005" stroke="#171717" stroke-width="3.829" stroke-linecap="round" stroke-linejoin="round"/>
<path d="M607.201 429.318L627.982 450.329" stroke="#171717" stroke-width="3.829" stroke-linecap="round" stroke-linejoin="round"/>
<path d="M616.915 365.52C619.315 365.596 621.715 365.685 624.115 365.762" stroke="#171717" stroke-width="3.829" stroke-linecap="round" stroke-linejoin="round"/>
<path d="M620.771 339.722C623.313 339.974 625.823 340.483 628.263 341.241" stroke="#171717" stroke-width="3.829" stroke-linecap="round" stroke-linejoin="round"/>
<path d="M613.9 388.713L619.006 389.402" stroke="#171717" stroke-width="3.829" stroke-linecap="round" stroke-linejoin="round"/>
<path d="M610.138 414.243C611.823 414.867 613.613 415.162 615.41 415.111" stroke="#171717" stroke-width="3.829" stroke-linecap="round" stroke-linejoin="round"/>
<path d="M244.018 168.01C244.07 168.01 244.133 167.997 244.184 167.997C251.294 167.576 258.412 167.384 265.54 167.423C272.841 167.449 280.13 167.716 287.406 168.223C294.58 168.708 301.736 169.435 308.876 170.406H308.889" stroke="#171717" stroke-width="3.829" stroke-linecap="round" stroke-linejoin="round"/>
<path d="M287.418 168.087C288.681 155.845 289.94 143.608 291.196 131.375" stroke="#171717" stroke-width="3.829" stroke-linecap="round" stroke-linejoin="round"/>
<path d="M265.539 167.41C266.905 155.322 268.267 143.234 269.624 131.145" stroke="#171717" stroke-width="3.829" stroke-linecap="round" stroke-linejoin="round"/>
<path d="M99.0839 687.78C88.2479 709.436 92.2989 737.211 107.622 755.962C122.945 774.713 148.311 784.189 172.408 781.793C196.505 779.397 218.908 765.768 233.589 746.508C240.027 738.062 245.182 728.247 246.081 717.664C246.98 707.081 242.981 695.684 234.241 689.654C222.148 681.315 205.131 685.438 193.055 693.803C171.755 708.559 159.921 735.403 161.942 761.233C163.963 787.063 179.204 811.207 200.867 825.425C222.792 839.818 251.434 844.112 276.135 835.296C297.576 827.645 314.735 811.149 328.715 793.18C342.695 775.211 354.172 755.38 368.496 737.688C382.82 719.996 400.714 704.106 422.562 697.712C444.41 691.318 470.662 696.385 484.69 714.318C495.58 728.246 497.55 747.56 493.857 764.85C491.418 776.274 486.552 787.436 478.339 795.745C470.126 804.054 458.277 809.185 446.693 807.668C435.109 806.151 424.4 797.2 422.456 785.682C420.512 774.164 428.914 761.416 440.523 760.11" stroke="#171717" stroke-width="3.829" stroke-linecap="round" stroke-linejoin="round"/>
<path d="M920.318 428.856C918.917 419.22 915.618 409.958 910.612 401.606C905.605 393.254 898.992 385.978 891.154 380.2C885.345 375.963 878.145 372.485 871.16 374.19C860.976 376.677 856.451 388.458 854.469 398.752C845.316 446.283 856.979 497.452 885.828 536.314C888.45 539.846 891.314 543.373 895.184 545.463C899.054 547.553 904.184 547.879 907.641 545.163C910.946 542.563 911.906 537.99 912.168 533.792C913.794 507.662 894.625 481.76 869.161 475.68C843.697 469.6 814.893 484.048 804.539 508.094C794.185 532.14 803.483 562.994 825.401 577.313C829.133 579.752 833.601 581.804 837.93 580.764C842.984 579.55 846.299 574.233 846.489 569.039C846.679 563.845 844.328 558.865 841.323 554.624C831.216 540.363 813.864 532.766 796.608 529.973C783.041 527.773 767.374 528.873 758.166 539.073C746.853 551.61 750.531 571.203 755.716 587.273C760.901 603.343 766.726 621.691 758.203 636.273" stroke="#171717" stroke-width="3.829" stroke-linecap="round" stroke-linejoin="round"/>
<path d="M206.05 287.691C181.52 293.916 166.95 322.145 170.525 347.198C174.1 372.251 192.146 393.331 213.498 406.918C221.034 411.718 229.341 415.845 238.259 416.369C247.177 416.893 256.802 413.104 261.1 405.269C266.451 395.523 261.108 381.883 250.929 377.41C240.75 372.937 227.821 377.446 221.671 386.71C215.521 395.974 216.001 408.825 221.833 418.29C234.698 439.17 266.807 441.132 279.84 461.908C289.866 477.891 282.706 501.964 265.576 509.869" stroke="#171717" stroke-width="3.829" stroke-linecap="round" stroke-linejoin="round"/>
<path d="M279.806 340.17C269.539 333.996 260.711 325.697 253.914 315.831C247.118 305.965 242.51 294.759 240.4 282.965" stroke="#171717" stroke-width="3.829" stroke-linecap="round" stroke-linejoin="round"/>
<path d="M130.944 621.369C111.625 604.411 96.9035 582.848 88.1436 558.681" stroke="#171717" stroke-width="3.829" stroke-linecap="round" stroke-linejoin="round"/>
<path d="M97.1293 609.166C92.4793 604.659 88.9268 599.145 86.7462 593.047C84.5655 586.95 83.8149 580.433 84.5523 574" stroke="#171717" stroke-width="3.829" stroke-linecap="round" stroke-linejoin="round"/>
<path d="M433.282 99.126C427.835 90.14 422.389 81.1537 416.943 72.167" stroke="#171717" stroke-width="3.829" stroke-linecap="round" stroke-linejoin="round"/>
<path d="M411.43 94.448L435.914 70.278" stroke="#171717" stroke-width="3.829" stroke-linecap="round" stroke-linejoin="round"/>
<path d="M587.174 71.9679L608.774 50.3199" stroke="url(#paint7_linear_46_7725)" stroke-width="3.829" stroke-linecap="round" stroke-linejoin="round"/>
<path d="M605.291 72.1519C600.19 64.3399 595.09 56.5279 589.991 48.7159" stroke="url(#paint8_linear_46_7725)" stroke-width="3.829" stroke-linecap="round" stroke-linejoin="round"/>
<path d="M716.173 215.383C710.817 210.27 706.529 204.144 703.559 197.361" stroke="#171717" stroke-width="3.829" stroke-linecap="round" stroke-linejoin="round"/>
<path d="M699.126 213.658L716.226 197.421" stroke="#171717" stroke-width="3.829" stroke-linecap="round" stroke-linejoin="round"/>
<path d="M651.168 174.607C653.262 170.714 654.914 165.507 651.945 162.228C649.469 159.496 644.854 159.818 641.828 161.928C638.802 164.038 636.984 167.434 635.277 170.701C637.199 164.83 632.816 158.685 627.738 155.163C624.077 152.623 619.175 150.806 615.25 152.916C614.023 153.66 612.977 154.669 612.189 155.868C611.4 157.067 610.889 158.427 610.692 159.849C610.32 162.695 610.487 165.585 611.186 168.369C612.421 174.348 614.386 180.152 617.037 185.652C618.693 189.089 623.196 199.863 627.237 200.842C634.951 202.707 648.122 180.267 651.168 174.607Z" fill="url(#paint9_linear_46_7725)"/>
<path d="M390.021 186.269C389.561 183.941 388.23 181.095 385.866 181.307C385.247 181.44 384.661 181.695 384.142 182.058C383.623 182.421 383.183 182.884 382.846 183.42C379.345 187.88 377.277 193.296 376.915 198.955C376.222 195.504 372.403 193.721 368.976 192.923C364.476 191.876 358.927 191.984 356.253 195.747C354.364 198.407 354.637 202.162 356.183 205.036C357.729 207.91 360.339 210.051 363.021 211.908C368.461 215.675 381.954 225.108 386.521 218.057C391.954 209.682 391.867 195.622 390.021 186.269Z" stroke="#171717" stroke-width="3.829" stroke-linecap="round" stroke-linejoin="round"/>
<path d="M181.29 190.467L192.076 203.709L209.099 202.33L199.84 216.68L206.411 232.443L189.902 228.071L176.941 239.193L175.998 222.14L161.415 213.25L177.342 207.083L181.29 190.467Z" stroke="#171717" stroke-width="3.829" stroke-linecap="round" stroke-linejoin="round"/>
<path d="M211.477 145.406L212.49 154.562L220.606 158.918L212.211 162.71L210.576 171.776L204.375 164.963L195.248 166.209L199.812 158.207L195.806 149.912L204.826 151.778L211.477 145.406Z" fill="#171717"/>
<path d="M704.631 133.944L705.643 143.1L713.759 147.456L705.364 151.247L703.729 160.313L697.528 153.5L688.401 154.746L692.965 146.745L688.959 138.45L697.979 140.316L704.631 133.944Z" fill="#171717"/>
<path d="M274.062 198.863L281.27 184.446" stroke="#171717" stroke-width="3.829" stroke-linecap="round" stroke-linejoin="round"/>
<path d="M256.041 215.082L270.457 227.697" stroke="#171717" stroke-width="3.829" stroke-linecap="round" stroke-linejoin="round"/>
<path d="M293.884 245.717L300.491 236.106" stroke="#171717" stroke-width="3.829" stroke-linecap="round" stroke-linejoin="round"/>
<path d="M271.058 257.13L282.472 264.34" stroke="#171717" stroke-width="3.829" stroke-linecap="round" stroke-linejoin="round"/>
<path d="M293.884 295.575L302.294 282.36" stroke="#171717" stroke-width="3.829" stroke-linecap="round" stroke-linejoin="round"/>
<path d="M328.725 281.76L332.329 272.749" stroke="#171717" stroke-width="3.829" stroke-linecap="round" stroke-linejoin="round"/>
<path d="M325.12 306.988L342.54 317.801" stroke="#171717" stroke-width="3.829" stroke-linecap="round" stroke-linejoin="round"/>
<path d="M374.979 340.027L388.194 314.797" stroke="#171717" stroke-width="3.829" stroke-linecap="round" stroke-linejoin="round"/>
<path d="M411.02 328.013L427.84 337.623" stroke="#171717" stroke-width="3.829" stroke-linecap="round" stroke-linejoin="round"/>
<path d="M433.847 318.401L444.659 304.586" stroke="#171717" stroke-width="3.829" stroke-linecap="round" stroke-linejoin="round"/>
<path d="M512.537 306.388L519.144 298.578" stroke="#171717" stroke-width="3.829" stroke-linecap="round" stroke-linejoin="round"/>
<path d="M433.246 382.075L426.639 392.887" stroke="#171717" stroke-width="3.829" stroke-linecap="round" stroke-linejoin="round"/>
<path d="M419.431 434.937L428.441 445.149" stroke="#171717" stroke-width="3.829" stroke-linecap="round" stroke-linejoin="round"/>
<path d="M504.128 466.774L513.137 475.784" stroke="#171717" stroke-width="3.829" stroke-linecap="round" stroke-linejoin="round"/>
<path d="M523.35 511.826L541.371 492.002" stroke="#171717" stroke-width="3.829" stroke-linecap="round" stroke-linejoin="round"/>
<path d="M598.437 461.366L613.455 476.384" stroke="#171717" stroke-width="3.829" stroke-linecap="round" stroke-linejoin="round"/>
<path d="M651.299 473.381L641.687 479.989" stroke="#171717" stroke-width="3.829" stroke-linecap="round" stroke-linejoin="round"/>
<path d="M457.273 473.982L472.29 484.194" stroke="#171717" stroke-width="3.829" stroke-linecap="round" stroke-linejoin="round"/>
<path d="M446.46 514.228L453.669 498.009" stroke="#171717" stroke-width="3.829" stroke-linecap="round" stroke-linejoin="round"/>
<path d="M404.412 494.405L422.433 480.589" stroke="#171717" stroke-width="3.829" stroke-linecap="round" stroke-linejoin="round"/>
<g opacity="0.1">
<path d="M248.114 136.409C240.264 183.787 240.764 236.059 259.93 280.804C268.143 299.977 280.43 317.312 296.959 330.166C313.746 343.221 333.616 351.596 354.223 356.502C377.639 362.077 401.846 363.825 425.823 364.883L416.105 357.483C420.12 384.664 415.822 413.037 405.332 438.328C400.058 450.957 393.194 462.861 384.906 473.752C380.856 479.033 376.454 484.036 371.73 488.724C366.312 494.148 360.34 498.293 356.746 505.18C356.006 506.537 355.676 508.08 355.797 509.621C355.917 511.163 356.483 512.636 357.425 513.861C358.367 515.087 359.646 516.012 361.104 516.525C362.563 517.037 364.139 517.115 365.64 516.748C374.279 514.777 380.313 508.48 386.419 502.348C405.663 482.809 420.114 459.074 428.637 433.008C437.16 406.942 439.524 379.254 435.541 352.121C434.884 347.674 429.864 344.9 425.823 344.721C388.485 343.074 348.18 340.08 315.77 319.548C281.682 297.953 265.762 258.754 261.897 219.958C259.18 192.691 262.156 165.501 261.552 138.223C261.389 130.847 249.418 128.505 248.109 136.403L248.114 136.409Z" fill="#171717"/>
</g>
<g opacity="0.1">
<path d="M432.111 270.835C431.542 273.013 431.017 275.193 430.511 277.386C429.934 279.905 429.066 282.508 429.223 285.104C429.449 288.836 431.918 292.059 435.767 292.517C439.299 292.937 443.23 290.837 444.047 287.111C445.067 282.456 444.088 277.111 443.618 272.393C443.329 269.493 441.612 267.004 438.537 266.638C437.139 266.446 435.719 266.766 434.538 267.537C433.357 268.309 432.494 269.481 432.108 270.838L432.111 270.835Z" fill="#171717"/>
</g>
<g opacity="0.1">
<path d="M485.6 159.642C477.293 159.307 467.908 159.542 460.667 164.235C452.32 169.646 449.137 179.281 448.61 188.774C447.297 212.407 447.695 236.18 447.549 259.84C447.477 271.484 465.594 271.499 465.641 259.84C465.722 239.7 465.852 219.571 465.525 199.433C465.406 192.097 464.269 183.289 466.334 176.151C468.752 167.795 478.434 167.977 485.6 167.798C490.858 167.667 490.842 159.853 485.6 159.642V159.642Z" fill="#171717"/>
</g>
<g opacity="0.1">
<path d="M691.468 336.829C684.49 338.067 677.555 339.221 671.068 342.343C665.027 345.351 659.378 349.088 654.247 353.47C643.139 362.782 635.496 375.568 632.552 389.76C629.641 403.817 630.346 421.65 637.814 434.339C641.262 440.198 645.608 446.239 650.714 450.763C655.971 455.42 661.214 457.783 667.824 459.738C668.235 459.841 668.668 459.821 669.069 459.681C669.469 459.542 669.821 459.288 670.079 458.952C670.338 458.615 670.492 458.211 670.524 457.788C670.556 457.365 670.464 456.941 670.259 456.57C667.34 452.189 664.983 447.263 662.449 442.604C659.618 437.602 657.366 432.294 655.735 426.783C652.612 415.847 649.79 405.766 651.413 394.207C652.956 383.221 658.186 372.194 664.746 363.342C671.459 354.284 682.061 345.62 692.967 342.253C696.475 341.17 694.995 336.204 691.467 336.829H691.468Z" fill="#171717"/>
</g>
</g>
</g>
<defs>
<linearGradient id="paint0_linear_46_7725" x1="462.959" y1="167.42" x2="462.959" y2="541.479" gradientUnits="userSpaceOnUse">
<stop stop-color="#42E670"/>
<stop offset="1" stop-color="#07AA50"/>
</linearGradient>
<linearGradient id="paint1_linear_46_7725" x1="745.782" y1="314.746" x2="745.782" y2="327.659" gradientUnits="userSpaceOnUse">
<stop stop-color="#42E670"/>
<stop offset="1" stop-color="#07AA50"/>
</linearGradient>
<linearGradient id="paint2_linear_46_7725" x1="652.243" y1="820.252" x2="652.243" y2="902.703" gradientUnits="userSpaceOnUse">
<stop stop-color="#42E670"/>
<stop offset="1" stop-color="#07AA50"/>
</linearGradient>
<linearGradient id="paint3_linear_46_7725" x1="300.269" y1="131.311" x2="300.269" y2="170.41" gradientUnits="userSpaceOnUse">
<stop stop-color="#42E670"/>
<stop offset="1" stop-color="#07AA50"/>
</linearGradient>
<linearGradient id="paint4_linear_46_7725" x1="278.371" y1="130.9" x2="278.371" y2="168.227" gradientUnits="userSpaceOnUse">
<stop stop-color="#42E670"/>
<stop offset="1" stop-color="#07AA50"/>
</linearGradient>
<linearGradient id="paint5_linear_46_7725" x1="256.906" y1="130.821" x2="256.906" y2="167.997" gradientUnits="userSpaceOnUse">
<stop stop-color="#42E670"/>
<stop offset="1" stop-color="#07AA50"/>
</linearGradient>
<linearGradient id="paint6_linear_46_7725" x1="117.912" y1="438.983" x2="117.912" y2="519.515" gradientUnits="userSpaceOnUse">
<stop stop-color="#42E670"/>
<stop offset="1" stop-color="#07AA50"/>
</linearGradient>
<linearGradient id="paint7_linear_46_7725" x1="597.974" y1="50.3199" x2="597.974" y2="71.9679" gradientUnits="userSpaceOnUse">
<stop stop-color="#42E670"/>
<stop offset="1" stop-color="#07AA50"/>
</linearGradient>
<linearGradient id="paint8_linear_46_7725" x1="597.641" y1="48.7159" x2="597.641" y2="72.1519" gradientUnits="userSpaceOnUse">
<stop stop-color="#42E670"/>
<stop offset="1" stop-color="#07AA50"/>
</linearGradient>
<linearGradient id="paint9_linear_46_7725" x1="632.029" y1="151.99" x2="632.029" y2="200.952" gradientUnits="userSpaceOnUse">
<stop stop-color="#42E670"/>
<stop offset="1" stop-color="#07AA50"/>
</linearGradient>
<clipPath id="clip0_46_7725">
<rect width="960" height="960" fill="white"/>
</clipPath>
<clipPath id="clip1_46_7725">
<rect width="885" height="869" fill="white" transform="translate(38 46)"/>
</clipPath>
</defs>
</svg>
